<?xml version="1.0" encoding="utf-8"?>
<!-- Generator: Adobe Illustrator 25.0.0, SVG Export Plug-In . SVG Version: 6.00 Build 0)  -->
<svg version="1.1" id="Layer_1" xmlns="http://www.w3.org/2000/svg" xmlns:xlink="http://www.w3.org/1999/xlink" x="0px" y="0px"
	 viewBox="0 0 1500 1500" style="enable-background:new 0 0 1500 1500;" xml:space="preserve">
<style type="text/css">
	.st0{fill:#FFFFFF;}
</style>
<g>
	<path class="st0" d="M269.15,817.98c6.82,13.88,51.5,72.93,50.85,87.6c0.57,16.75-17.89,33.82-34.54,33.16
		c-9.42,0.64-18.24-8.19-23.49-17.41c0,0-64.11-95.89-64.11-95.89c-15.72,28.5-31.89,117.72-74.61,113.3
		c-30.43-1.11-33.33-28.23-20.73-51.12c0,0,118.27-291.54,118.27-291.54l3.04-7.46c8.47-20.63,22.01-30.95,40.62-30.95
		c24.09-0.06,34.76,24.76,23.76,45.32c0,0-3.04,7.46-3.04,7.46l-70.47,173.55c19.59-11.87,72.85-61.85,95.34-60.52
		c34.46,1.19,34.42,42.93,6.63,59.69C313.9,785.21,273.24,815.02,269.15,817.98z"/>
	<path class="st0" d="M420.84,875.44h31.14c37.56-3.15,44.46,32.41,22.46,50.71c-8.18,6.24-19.61,9.37-34.31,9.37
		c-32.03-0.96-95.02,8.83-95.89-36.92c-1.44-14.39,46.31-119.36,51.25-135.02c7.76-29.78,38.82-51.66,63.79-31.14
		c13.68,14.18,8.52,24.95,0.96,45.47C460.25,777.9,420.84,875.44,420.84,875.44z M457.34,635.32c50.59,0.37,50.58,76.46,0,76.82
		C406.75,711.77,406.75,635.68,457.34,635.32z"/>
	<path class="st0" d="M829.46,875.44h32.79c37.54-3.15,44.47,32.41,22.46,50.71c-15.88,15-68.88,7.76-89.97,9.37
		c-22.04,0.32-40.93-12.59-40.78-35c-0.32-23.49,31.98-78.24,35.55-102.51c0-11.94-6.06-17.91-18.19-17.91
		c-23.27,0.7-40.98,23.78-49.87,46.29c-15.83,28.96-32.02,117.24-74.95,112.98c-29.38-0.96-32.2-29.38-20.12-51.25
		c0,0,31.14-76.88,31.14-76.88c4.11-11.59,7.5-18.66-1.38-26.59c-52.75-28.58-74.47,85.2-92.31,117.52
		c-14.87,51.71-88.24,48.59-67.23-6.61c0,0,3.03-7.44,3.03-7.44l54.83-135.02c10.24-34.14,55.85-39.49,64.48-5.79
		c33.82-34.68,89.77-38.23,114.63,5.79c36.37-45.57,127.28-45.29,131.44,20.67C866.82,794.53,835.98,855.47,829.46,875.44z"/>
	<path class="st0" d="M1036,719.6c126.72,0.35,111.85,178,13.4,210.99c-22.64,7.14-90.32,5.62-103.77-6.5
		C858.49,861.21,937.3,712.78,1036,719.6z M1029.37,778.46c-46.36-2.53-85.72,97.68-18.24,96.72
		C1061.58,879.46,1087.03,781.39,1029.37,778.46z"/>
	<path class="st0" d="M1230.27,865.24c50.54,0.79,50.45,76.34,0,77.1C1179.43,941.75,1179.36,865.83,1230.27,865.24z M1307.65,580.6
		c71.09-3.3,121.01,73.02,84.7,134.17c-28.33,45.66-92.6,70.07-104.59,118.14c-28.33,49.39-114.51-5.3,7.19-108.05
		c17.5-15.85,28.41-26.57,32.74-32.2c25.19-34.47-25.83-66.54-53.06-38.96c-21.25,16.64-5.46,39.65-3.45,62.59
		c-0.17,33.81-45.52,37.82-61.63,11.47C1167.3,661.27,1230.6,575,1307.65,580.6z"/>
</g>
</svg>
